<svg width="38" height="38" viewBox="0 0 38 38" fill="none" xmlns="http://www.w3.org/2000/svg">
<circle cx="19" cy="19" r="19" fill="#16232C"/>
<path d="M16.7188 27H14.1406L7.83594 12.8672V27H5.84375V9.52734H8.36328L14.7617 23.6133V9.52734H16.7188V27ZM25.1445 17.3438C26.4727 17.3438 27.4922 17.1016 28.2031 16.6172C28.9219 16.125 29.2812 15.2969 29.2812 14.1328C29.2812 13.6016 29.168 13.1406 28.9414 12.75C28.3477 11.7422 27.0664 11.2383 25.0977 11.2383H22.8711V17.3438H25.1445ZM24.0781 9.52734C25.5312 9.52734 26.7891 9.63281 27.8516 9.84375C28.9219 10.0547 29.8086 10.5 30.5117 11.1797C31.2148 11.8516 31.5664 12.832 31.5664 14.1211C31.5664 15.4023 31.2109 16.4258 30.5 17.1914C29.7969 17.9492 28.8594 18.457 27.6875 18.7148C28.6094 19.8945 29.4219 21.1289 30.125 22.418C30.8281 23.6992 31.582 25.2266 32.3867 27H29.8438C29.8047 26.9219 29.6719 26.6406 29.4453 26.1562C29.2266 25.6641 29.0938 25.3672 29.0469 25.2656C29 25.1641 28.875 24.9062 28.6719 24.4922C28.4766 24.0781 28.3359 23.7969 28.25 23.6484C28.1719 23.4922 28.0352 23.2305 27.8398 22.8633C27.6523 22.4961 27.4883 22.2031 27.3477 21.9844C27.2148 21.7656 27.0078 21.4258 26.7266 20.9648C26.4531 20.5039 26.0586 19.918 25.543 19.207L23.8906 19.2422H22.8711V27H20.6797V9.52734H24.0781Z" fill="white"/>
</svg>
