<svg width="22" height="15" viewBox="0 0 22 13" fill="none" xmlns="http://www.w3.org/2000/svg">
<path d="M1.22223 14.6667C0.87593 14.6667 0.585856 14.5493 0.352004 14.3147C0.118152 14.08 0.000819029 13.7899 4.21455e-06 13.4444C-0.0008106 13.099 0.116523 12.8089 0.352004 12.5742C0.587486 12.3396 0.877559 12.2222 1.22223 12.2222H20.7778C21.1241 12.2222 21.4146 12.3396 21.6492 12.5742C21.8839 12.8089 22.0008 13.099 22 13.4444C21.9992 13.7899 21.8818 14.0804 21.648 14.3159C21.4141 14.5514 21.1241 14.6683 20.7778 14.6667H1.22223ZM1.22223 8.55555C0.87593 8.55555 0.585856 8.43822 0.352004 8.20355C0.118152 7.96889 0.000819029 7.67881 4.21455e-06 7.33333C-0.0008106 6.98785 0.116523 6.69778 0.352004 6.46311C0.587486 6.22844 0.877559 6.11111 1.22223 6.11111H20.7778C21.1241 6.11111 21.4146 6.22844 21.6492 6.46311C21.8839 6.69778 22.0008 6.98785 22 7.33333C21.9992 7.67881 21.8818 7.96929 21.648 8.20477C21.4141 8.44026 21.1241 8.55718 20.7778 8.55555H1.22223ZM1.22223 2.44444C0.87593 2.44444 0.585856 2.32711 0.352004 2.09244C0.118152 1.85778 0.000819029 1.5677 4.21455e-06 1.22222C-0.0008106 0.87674 0.116523 0.586667 0.352004 0.352C0.587486 0.117333 0.877559 0 1.22223 0H20.7778C21.1241 0 21.4146 0.117333 21.6492 0.352C21.8839 0.586667 22.0008 0.87674 22 1.22222C21.9992 1.5677 21.8818 1.85818 21.648 2.09367C21.4141 2.32915 21.1241 2.44607 20.7778 2.44444H1.22223Z" fill="white"/>
</svg>
