<svg width="20" height="16" viewBox="0 0 20 16" fill="none" xmlns="http://www.w3.org/2000/svg">
<path d="M19.3864 13.6579H19.4405C19.3493 14.0361 19.1553 14.3855 18.8757 14.6651C18.596 14.9448 18.2467 15.1387 17.8684 15.23V15.1758C18.2326 15.0856 18.5688 14.8976 18.8385 14.6279C19.1082 14.3582 19.2961 14.022 19.3864 13.6579ZM19.5 12.6579H19.4474V1.55263H19.4737H19.5V12.6579ZM1.55263 0.5H18.4474V0.526316V0.552632H1.55263V0.526316V0.5ZM0.526316 1.55263H0.552632V12.6579H0.5V1.55263H0.526316ZM0.559464 13.6579H0.613647C0.703886 14.022 0.891834 14.3582 1.16154 14.6279C1.43125 14.8976 1.76743 15.0856 2.13158 15.1758V15.23C1.75335 15.1387 1.40398 14.9448 1.12433 14.6651C0.844667 14.3855 0.650742 14.0361 0.559464 13.6579ZM3.13158 15.2895V15.2368H16.8684V15.2895H3.13158Z" fill="black" stroke="#FF715B"/>
<path d="M0.526314 0.526367L10 10.0001L19.4737 0.526367" stroke="#FF715B" stroke-linecap="round" stroke-linejoin="round"/>
</svg>
