<svg width="18" height="20" viewBox="0 0 18 20" fill="none" xmlns="http://www.w3.org/2000/svg">
<path d="M10.2682 0C9.85637 0 9.50494 0.160347 9.21378 0.48128C8.92268 0.802274 8.77749 1.18902 8.77749 1.64128C8.77749 2.07894 8.92262 2.45788 9.21378 2.7788C9.50494 3.09979 9.85639 3.26064 10.2682 3.26064C10.6659 3.26064 11.0102 3.09979 11.3014 2.7788C11.5926 2.45788 11.7383 2.07894 11.7383 1.64128C11.7383 1.189 11.5926 0.802274 11.3014 0.48128C11.0103 0.160367 10.6659 0 10.2682 0ZM13.462 3.12937C13.5046 3.37739 13.5259 3.70527 13.5259 4.11377V4.96688H12.4824V7.08938C12.7806 7.04563 13.0219 7.02441 13.2065 7.02441L13.526 7.04569V7.08944H13.5047V11.0063C13.5047 12.2319 13.6543 13.1292 13.9525 13.6982C14.3502 14.4567 15.0673 14.8357 16.104 14.8357C16.8425 14.8357 17.4745 14.6901 18 14.3982V12.21C17.6448 12.4581 17.2471 12.5819 16.8068 12.5819C16.182 12.5819 15.8698 12.0931 15.8698 11.1156V7.04561H16.7856C16.9561 7.04562 17.1372 7.0529 17.329 7.06744C17.5207 7.08205 17.6517 7.08928 17.7227 7.08928V4.96678H15.8699V4.0699C15.8699 3.71982 15.8913 3.40649 15.9338 3.12925H13.4623L13.4621 3.12933L13.462 3.12937ZM3.70663 4.85754C2.74091 4.85754 1.91036 5.18606 1.2144 5.8425C0.490188 6.54271 0.127711 7.41774 0.127711 8.46811C0.127711 9.16832 0.32635 9.82486 0.72398 10.4375C1.07901 11.0064 1.48403 11.3714 1.93848 11.5319V11.5756C1.48403 11.7797 1.25702 12.2906 1.25702 13.1075C1.25702 13.7349 1.49825 14.2012 1.98109 14.5075V14.5513C0.660417 15.0035 0 15.8422 0 17.0675C0 18.1325 0.440362 18.9134 1.32097 19.4094C2.01673 19.8033 2.90424 20 3.98354 20C6.61083 20 7.92455 18.8694 7.92455 16.6081C7.92455 15.1932 6.90897 14.3252 4.87803 14.0044C4.40943 13.9314 4.05467 13.7566 3.81322 13.4794C3.62859 13.2898 3.53634 13.0997 3.53634 12.91C3.53634 12.3703 3.82025 12.057 4.38815 11.9694C5.25446 11.8382 5.96119 11.426 6.50802 10.7331C7.05478 10.0402 7.32821 9.22675 7.32821 8.29313C7.32821 8.00136 7.27144 7.68795 7.15788 7.35249C7.5272 7.2649 7.81083 7.18476 8.00969 7.11186V4.85746C7.11487 5.20759 6.32686 5.38305 5.64525 5.38305C5.0487 5.03298 4.40259 4.85746 3.70667 4.85746V4.85754H3.70663ZM9.05435 4.9669C9.08272 5.22945 9.09694 5.70387 9.09694 6.38939V13.195C9.09694 13.8953 9.08272 14.3909 9.05435 14.6825H11.4614C11.4329 14.3471 11.4188 13.8072 11.4188 13.0632V6.34561C11.4188 5.70377 11.4329 5.24404 11.4614 4.96688H9.05435V4.9669ZM3.79182 6.87067C4.2179 6.87067 4.55131 7.03896 4.79276 7.37443C4.99153 7.68089 5.09089 8.04514 5.09089 8.46819C5.09089 9.48934 4.65813 10 3.79182 10C2.89721 10 2.44959 9.49664 2.44959 8.49003C2.44959 7.41059 2.89721 6.87067 3.79182 6.87067ZM3.94089 15.7769C5.13392 15.7769 5.7304 16.1486 5.7304 16.8925C5.7304 17.6803 5.18357 18.0744 4.09004 18.0744C2.84033 18.0744 2.21541 17.6948 2.21541 16.9362C2.21541 16.163 2.79062 15.7769 3.94097 15.7769L3.94089 15.7769Z" fill="#FF715B"/>
</svg>
