<svg width="20" height="20" viewBox="0 0 20 20" fill="none" xmlns="http://www.w3.org/2000/svg">
<path d="M10 5.4902C9.10805 5.4902 8.23612 5.75469 7.49449 6.25023C6.75285 6.74578 6.17482 7.45011 5.83348 8.27417C5.49215 9.09823 5.40284 10.005 5.57685 10.8798C5.75086 11.7546 6.18038 12.5582 6.81109 13.1889C7.44179 13.8196 8.24537 14.2491 9.12018 14.4231C9.995 14.5972 10.9018 14.5079 11.7258 14.1665C12.5499 13.8252 13.2542 13.2471 13.7498 12.5055C14.2453 11.7639 14.5098 10.892 14.5098 10C14.5082 8.8044 14.0326 7.65822 13.1872 6.81281C12.3418 5.96739 11.1956 5.49175 10 5.4902ZM10 13.3333C9.34073 13.3333 8.69626 13.1378 8.1481 12.7716C7.59994 12.4053 7.17269 11.8847 6.9204 11.2756C6.66811 10.6665 6.6021 9.9963 6.73072 9.3497C6.85933 8.7031 7.1768 8.10915 7.64298 7.64298C8.10915 7.1768 8.7031 6.85933 9.3497 6.73072C9.9963 6.6021 10.6665 6.66811 11.2756 6.9204C11.8847 7.17269 12.4053 7.59994 12.7716 8.1481C13.1378 8.69626 13.3333 9.34073 13.3333 10C13.3333 10.8841 12.9821 11.7319 12.357 12.357C11.7319 12.9821 10.8841 13.3333 10 13.3333ZM14.7059 0H5.29412C3.89051 0.00155697 2.54483 0.559829 1.55233 1.55233C0.559829 2.54483 0.00155697 3.89051 0 5.29412V14.7059C0.00155697 16.1095 0.559829 17.4552 1.55233 18.4477C2.54483 19.4402 3.89051 19.9984 5.29412 20H14.7059C16.1095 19.9984 17.4552 19.4402 18.4477 18.4477C19.4402 17.4552 19.9984 16.1095 20 14.7059V5.29412C19.9984 3.89051 19.4402 2.54483 18.4477 1.55233C17.4552 0.559829 16.1095 0.00155697 14.7059 0ZM18.8235 14.7059C18.8235 15.798 18.3897 16.8453 17.6175 17.6175C16.8453 18.3897 15.798 18.8235 14.7059 18.8235H5.29412C4.20205 18.8235 3.15471 18.3897 2.3825 17.6175C1.61029 16.8453 1.17647 15.798 1.17647 14.7059V5.29412C1.17647 4.20205 1.61029 3.15471 2.3825 2.3825C3.15471 1.61029 4.20205 1.17647 5.29412 1.17647H14.7059C15.798 1.17647 16.8453 1.61029 17.6175 2.3825C18.3897 3.15471 18.8235 4.20205 18.8235 5.29412V14.7059ZM16.0784 4.90196C16.0784 5.09586 16.0209 5.28541 15.9132 5.44664C15.8055 5.60786 15.6524 5.73352 15.4732 5.80772C15.2941 5.88193 15.097 5.90134 14.9068 5.86352C14.7166 5.82569 14.5419 5.73231 14.4048 5.5952C14.2677 5.45809 14.1743 5.2834 14.1365 5.09323C14.0987 4.90305 14.1181 4.70592 14.1923 4.52678C14.2665 4.34764 14.3921 4.19452 14.5534 4.08679C14.7146 3.97907 14.9041 3.92157 15.098 3.92157C15.3581 3.92157 15.6074 4.02486 15.7913 4.20872C15.9751 4.39258 16.0784 4.64194 16.0784 4.90196Z" fill="#FF715B"/>
</svg>
