<svg width="18" height="18" viewBox="0 0 18 18" fill="none" xmlns="http://www.w3.org/2000/svg">
<path d="M3.125 1.25C2.62772 1.25 2.15081 1.44754 1.79917 1.79917C1.44754 2.15081 1.25 2.62772 1.25 3.125V14.875C1.25 15.3723 1.44754 15.8492 1.79917 16.2008C2.15081 16.5525 2.62772 16.75 3.125 16.75H14.875C15.3723 16.75 15.8492 16.5525 16.2008 16.2008C16.5525 15.8492 16.75 15.3723 16.75 14.875V10.625C16.75 10.4592 16.8158 10.3003 16.9331 10.1831C17.0503 10.0658 17.2092 10 17.375 10C17.5408 10 17.6997 10.0658 17.8169 10.1831C17.9342 10.3003 18 10.4592 18 10.625V14.875C18 15.7038 17.6708 16.4987 17.0847 17.0847C16.4987 17.6708 15.7038 18 14.875 18H3.125C2.2962 18 1.50134 17.6708 0.915291 17.0847C0.32924 16.4987 0 15.7038 0 14.875V3.125C0 2.2962 0.32924 1.50134 0.915291 0.915291C1.50134 0.32924 2.2962 0 3.125 0H7.375C7.54076 0 7.69973 0.065848 7.81694 0.183058C7.93415 0.300269 8 0.45924 8 0.625C8 0.79076 7.93415 0.949731 7.81694 1.06694C7.69973 1.18415 7.54076 1.25 7.375 1.25H3.125ZM10.5 0.625C10.5 0.28 10.78 0 11.125 0H17.375C17.72 0 18 0.28 18 0.625V6.875C18 7.04076 17.9342 7.19973 17.8169 7.31694C17.6997 7.43415 17.5408 7.5 17.375 7.5C17.2092 7.5 17.0503 7.43415 16.9331 7.31694C16.8158 7.19973 16.75 7.04076 16.75 6.875V2.134L11.567 7.317C11.4498 7.43423 11.2908 7.50008 11.125 7.50008C10.9592 7.50008 10.8002 7.43423 10.683 7.317C10.5658 7.19977 10.4999 7.04078 10.4999 6.875C10.4999 6.70922 10.5658 6.55023 10.683 6.433L15.866 1.25H11.125C10.78 1.25 10.5 0.97 10.5 0.625Z" fill="#FF715B"/>
</svg>
