<svg width="20" height="20" viewBox="0 0 20 20" fill="none" xmlns="http://www.w3.org/2000/svg">
<path d="M19.2482 13.9718L14.3294 11.7707C14.1387 11.6882 13.9304 11.6545 13.7235 11.6727C13.5165 11.6909 13.3173 11.7604 13.1439 11.8749C13.1301 11.8837 13.1169 11.8934 13.1044 11.9041L10.521 14.1062C10.4635 14.1412 10.3982 14.1616 10.331 14.1654C10.2638 14.1692 10.1967 14.1564 10.1356 14.128C8.44388 13.3114 6.69281 11.5739 5.87613 9.90196C5.84725 9.84133 5.83384 9.77449 5.83711 9.70741C5.84038 9.64033 5.86023 9.57511 5.89488 9.51758L8.10325 6.89151C8.11367 6.87901 8.12304 6.86547 8.13242 6.85192C8.24657 6.6788 8.31587 6.47999 8.33405 6.27342C8.35224 6.06684 8.31874 5.85898 8.23658 5.66858L6.03134 0.758105C5.92488 0.5094 5.74061 0.301946 5.5062 0.166896C5.27178 0.0318457 4.99988 -0.0235112 4.73133 0.00913822C3.42044 0.181974 2.2173 0.826088 1.34662 1.82118C0.475943 2.81626 -0.00272915 4.09427 1.17056e-05 5.41649C1.17056e-05 13.4582 6.54177 20 14.5835 20C15.9058 20.0027 17.1838 19.5241 18.1789 18.6534C19.174 17.7827 19.8181 16.5796 19.9909 15.2687C20.0233 15.0014 19.9685 14.7307 19.8347 14.497C19.7009 14.2633 19.4952 14.0791 19.2482 13.9718ZM19.1669 15.1645C19.0198 16.2747 18.4734 17.2933 17.6299 18.0298C16.7863 18.7664 15.7034 19.1705 14.5835 19.1666C7.00219 19.1666 0.833357 12.9978 0.833357 5.41649C0.829477 4.29663 1.2336 3.21369 1.97017 2.37015C2.70674 1.5266 3.72533 0.980203 4.83549 0.833106C4.85215 0.832105 4.86884 0.832105 4.8855 0.833106C4.9677 0.833807 5.04786 0.858807 5.11588 0.904961C5.18391 0.951115 5.23676 1.01636 5.26779 1.09248L7.46678 6.00296C7.49244 6.06297 7.50364 6.12817 7.49948 6.19331C7.49531 6.25845 7.47591 6.3217 7.44282 6.37796L5.2355 9.00299C5.22508 9.01653 5.21467 9.02903 5.20529 9.04362C5.08769 9.22345 5.01844 9.43055 5.00421 9.64495C4.98997 9.85935 5.03125 10.0738 5.12404 10.2676C6.02926 12.1207 7.89595 13.9739 9.76994 14.8791C9.96506 14.9713 10.1807 15.0114 10.3959 14.9955C10.6112 14.9796 10.8186 14.9083 10.9981 14.7885L11.0366 14.7593L13.6231 12.5593C13.6784 12.5255 13.741 12.5053 13.8057 12.5004C13.8703 12.4955 13.9352 12.5061 13.995 12.5312L18.9128 14.7353C18.9958 14.7699 19.0654 14.8303 19.1112 14.9077C19.157 14.985 19.1765 15.0751 19.1669 15.1645Z" fill="#FF715B"/>
</svg>
